<svg width="17" height="16" viewBox="0 0 17 16" fill="none" xmlns="http://www.w3.org/2000/svg">
<path d="M7.49203 1.2915C7.73301 0.569499 8.77966 0.569499 9.01984 1.2915L10.24 4.95562C10.2925 5.11279 10.3946 5.24974 10.5316 5.34688C10.6687 5.44403 10.8337 5.49641 11.0031 5.49653H14.9511C15.7295 5.49653 16.0524 6.46861 15.4235 6.91546L12.2297 9.17946C12.0925 9.2768 11.9904 9.41402 11.938 9.57146C11.8856 9.7289 11.8857 9.89848 11.9381 10.0559L13.1574 13.72C13.3984 14.4428 12.551 15.0433 11.922 14.5965L8.72825 12.3325C8.59099 12.2351 8.42564 12.1826 8.25593 12.1826C8.08623 12.1826 7.92088 12.2351 7.78362 12.3325L4.58984 14.5965C3.96089 15.0433 3.11344 14.442 3.35442 13.72L4.57378 10.0559C4.62621 9.89848 4.62624 9.7289 4.57386 9.57146C4.52148 9.41402 4.41938 9.2768 4.28219 9.17946L1.08842 6.91546C0.45866 6.46861 0.783178 5.49653 1.56074 5.49653H5.50797C5.6775 5.49658 5.84269 5.44428 5.97991 5.34711C6.11712 5.24995 6.21932 5.11292 6.27187 4.95562L7.49203 1.2915Z" stroke="black" stroke-width="1.5" stroke-linecap="round" stroke-linejoin="round"/>
</svg>
