<svg width="16" height="16" viewBox="0 0 16 16" fill="none" xmlns="http://www.w3.org/2000/svg">
<path d="M12.6667 4C13.3696 4 13.9454 4.42766 13.9963 5.14078L14 5.24363V10.7564C14 11.4829 13.3566 11.9474 12.6667 12H9.61066L10.4714 13.0255L9.52859 14L7.05719 11.4455L9.52859 8.89094L10.4714 9.86544L9.61066 10.6667H12.6667V5.33334H10V4H12.6667ZM6.47141 2L8.94281 4.55453L6.47141 7.10906L5.52859 6.13456L6.33334 5.33334H3.33334V10.6667H6V12H3.33334C2.63044 12 2.05456 11.5723 2.00366 10.8592L2 10.7564V5.24363C2 4.51709 2.31009 4.05263 3 4H6.33334L5.52859 2.97453L6.47141 2Z" fill="white"/>
</svg>
