<svg width="16" height="16" viewBox="0 0 16 16" fill="none" xmlns="http://www.w3.org/2000/svg">
<path fill-rule="evenodd" clip-rule="evenodd" d="M7.9999 2.3999C8.21208 2.3999 8.41556 2.48419 8.56559 2.63422C8.71562 2.78425 8.7999 2.98773 8.7999 3.1999V7.1999H12.7999C13.0121 7.1999 13.2156 7.28419 13.3656 7.43422C13.5156 7.58425 13.5999 7.78773 13.5999 7.9999C13.5999 8.21208 13.5156 8.41556 13.3656 8.56559C13.2156 8.71562 13.0121 8.7999 12.7999 8.7999H8.7999V12.7999C8.7999 13.0121 8.71562 13.2156 8.56559 13.3656C8.41556 13.5156 8.21208 13.5999 7.9999 13.5999C7.78773 13.5999 7.58425 13.5156 7.43422 13.3656C7.28419 13.2156 7.1999 13.0121 7.1999 12.7999V8.7999H3.1999C2.98773 8.7999 2.78425 8.71562 2.63422 8.56559C2.48419 8.41556 2.3999 8.21208 2.3999 7.9999C2.3999 7.78773 2.48419 7.58425 2.63422 7.43422C2.78425 7.28419 2.98773 7.1999 3.1999 7.1999H7.1999V3.1999C7.1999 2.98773 7.28419 2.78425 7.43422 2.63422C7.58425 2.48419 7.78773 2.3999 7.9999 2.3999Z" fill="#3E4278"/>
</svg>
